<svg width="994" height="1349" viewBox="0 0 994 1349" fill="none" xmlns="http://www.w3.org/2000/svg">
<g id="Person">
<g id="body/Button Shirt 1">
<path id="&#240;&#159;&#142;&#168; Background" fill-rule="evenodd" clip-rule="evenodd" d="M797.418 1191C683.104 1208.46 566.716 1209.34 451.452 1203C405.835 1199.56 360.078 1198.94 314.497 1203.33C287.564 1205.35 169.473 1214.43 159.825 1190.17C165.897 1060.98 178.196 930.698 215.926 806.454C231.443 762.339 244.769 725.723 275.053 689.216C284.598 679.249 305.181 658.344 316.975 651.526C327.193 645.621 331.464 647.727 337.331 637.752C343.162 626.732 347.462 608.329 355.741 600.553C364.17 592.636 376.661 595.468 392.144 598.018C389.3 559.361 407.043 549.515 431.487 542.164C474.454 525.672 516.888 533.957 527.702 586.559C547.754 586.559 559.017 595.237 571.194 603.575C576.171 606.984 572.709 615.668 578.654 618.347C589.654 622.286 609.093 621.321 619.685 626.169C667.848 648.212 710.745 680.177 738.917 726.861C802.074 826.533 845.459 1036.49 837.951 1154.62C841.241 1159.81 836.692 1167.25 835.536 1172.83C834.077 1177.68 829.351 1180.91 824.418 1180.36C817.536 1187.8 806.89 1189.46 797.418 1191Z" fill="white"/>
<path id="&#240;&#159;&#150;&#141; Ink" fill-rule="evenodd" clip-rule="evenodd" d="M324.254 648.604C324.956 648.211 324.338 647.202 323.633 647.536C289.731 663.53 263.723 691.592 245.423 724.014C226.474 757.586 215.674 795.703 206.363 832.959L206.027 834.305C196.099 874.159 187.657 914.425 180.057 954.789C172.359 995.665 166.181 1036.79 161.211 1078.09C158.752 1098.51 156.56 1118.97 154.85 1139.47C153.996 1149.71 153.22 1159.96 152.523 1170.21C152.244 1174.32 151.982 1178.42 151.757 1182.52L151.595 1185.6C151.456 1188.39 151.126 1191.2 151.812 1193.95C152.405 1196.33 153.655 1198.48 154.755 1200.66C156.93 1204.97 162.893 1204.26 165.238 1200.66L165.918 1199.61C167.473 1197.19 168.764 1194.95 169.252 1191.94C169.724 1189.03 169.741 1185.98 169.953 1183.04C170.342 1177.62 170.674 1172.21 171.052 1166.8C171.846 1155.4 172.737 1144.02 173.724 1132.64C175.676 1110.17 177.77 1087.73 180.342 1065.33C184.911 1025.52 190.645 985.818 197.404 946.325C204.009 907.745 212.358 869.556 221.068 831.415L221.97 827.47C237.22 760.879 260.725 684.191 324.254 648.604ZM685.355 909.36C685.106 908.694 684.033 908.541 683.852 909.36C681.568 919.7 681.343 930.351 680.994 940.938C680.65 951.381 680.664 961.872 680.815 972.322C681.373 1010.73 682.422 1049.1 683.328 1087.5C683.781 1106.7 684.207 1125.91 684.533 1145.12C684.656 1152.33 684.76 1159.53 684.846 1166.74L684.952 1176.24C685.004 1180.44 685.114 1184.59 685.623 1188.79C685.959 1191.55 686.675 1194.18 688.19 1196.55C689.266 1198.23 690.799 1199.08 692.293 1200.22L692.572 1200.44C694.478 1201.96 696.485 1201.97 698.373 1200.44L698.921 1200.01C700.724 1198.59 702.282 1197.48 703.433 1195.24C705.034 1192.12 705.291 1188.73 705.563 1185.3C705.976 1180.09 705.702 1174.8 705.648 1169.58C705.542 1159.1 705.397 1148.62 705.214 1138.14C704.543 1099.71 703.217 1061.27 700.799 1022.91C699.66 1004.84 698.116 986.715 696.044 968.719L695.65 965.346C695.022 960.052 694.448 954.663 693.803 949.256C703.443 942.437 711.916 934.164 719.142 924.778C719.674 924.087 718.798 923.118 718.156 923.787C710.772 931.475 702.307 937.604 692.935 942.424C691.399 931.107 689.288 919.85 685.355 909.36ZM524.31 566.798C524.177 566.695 523.971 566.651 523.845 566.798C521.773 569.228 522.193 572.942 522.126 576.021L522.119 576.307C521.97 580.808 521.942 585.295 521.957 589.799L522.003 604.135V604.135C522.009 606.106 522.168 608.158 522.068 610.141L522.015 610.908V610.908C520.927 612.029 520.421 613.649 520.79 615.276C520.857 617.363 521.942 619.105 523.525 620.2L520.132 625.04V625.04L516.736 629.878C509.737 639.861 502.661 649.755 495.287 659.464C487.767 669.363 479.745 678.889 471.35 688.047C467.249 692.523 463.078 696.936 458.81 701.25C457.075 703.004 455.297 704.714 453.539 706.443L451.79 708.181C450.757 709.22 449.457 710.248 448.771 711.566C448.367 712.343 448.276 714.257 448.131 714.574C446.836 717.437 449.046 722.001 452.717 720.573L452.55 720.461C451.882 719.994 452.31 719.987 453.836 720.442C454.799 720.439 455.701 720.216 456.544 719.775L456.795 719.636C457.983 719.029 459.043 717.855 460.007 716.916L460.246 716.686C462.452 714.608 464.555 712.403 466.669 710.231C471.082 705.698 475.394 701.068 479.57 696.315C487.9 686.83 495.797 676.961 503.275 666.786C510.893 656.423 517.974 645.527 524.063 634.184C526.374 629.879 528.492 625.492 530.523 621.053C534.476 619.777 535.394 615.549 535.118 610.786C536.577 607.37 537.891 603.883 538.668 600.321C538.774 599.833 538.15 599.372 537.777 599.799C536.512 601.244 535.342 602.782 534.216 604.36C533.537 601.021 532.678 597.947 532.274 595.987L530.521 587.339V587.339C540.397 586.821 551.219 590.902 558.028 598.045C558.393 599.906 559.817 601.237 561.205 602.976C562.79 604.964 564.174 607.194 565.205 609.527C567.493 614.698 566.202 622.318 570.643 626.111C571.105 626.506 571.623 626.781 572.156 626.951C570.049 637.341 571.005 648.79 571.051 659.332L571.053 660.26C571.042 672.057 571.434 683.865 571.888 695.653L572.349 707.32C572.946 722.879 573.334 738.446 571.831 753.92C564.966 747.806 557.868 741.971 550.526 736.412C545.699 732.756 540.774 729.231 535.76 725.837L531.686 723.099C526.805 719.807 521.804 716.42 516.459 714.062C509.468 710.979 502.82 712.039 496.07 715.201C489.348 718.35 482.827 722.008 476.234 725.422C469.528 728.892 462.808 732.334 456.092 735.784C451.643 738.07 445.125 740.134 441.862 744.342C441.654 743.411 441.411 742.483 441.128 741.558C441.451 740.147 441.326 738.623 440.54 737.17C429.576 716.91 419.432 696.167 409.359 675.449C404.26 664.964 399.413 654.355 394.305 643.876L389.339 633.67C388.509 631.97 387.677 630.271 386.84 628.575C385.587 626.036 384.282 623.521 383.015 620.987C382.48 619.917 381.809 618.854 381.287 617.773L381.041 617.231C381.029 617.203 379.825 613.398 380.755 613.761L380.835 613.8C381.309 614.07 381.689 613.47 381.382 613.087C380.068 611.453 378.237 612.9 377.487 614.413C375.421 618.576 379.207 625.111 380.663 629.097L380.743 629.32C385.262 642.184 390.379 654.807 395.622 667.386C405.675 691.504 416.475 715.251 427.25 739.039L427.378 739.448V739.448C425.08 737.677 422.627 736.069 420.526 734.505C415.226 730.556 409.771 726.802 404.325 723.061C394.338 716.198 384.08 709.789 373.652 703.632L371.564 702.404C366.355 699.352 361.196 696.878 355.013 697.794C349.269 698.645 343.929 701.748 338.739 704.269L338.203 704.527L322.169 712.194C323.883 705.319 325.739 698.479 327.675 691.663C331.452 678.369 335.607 665.187 340.113 652.123C344.322 639.917 348.872 627.845 353.684 615.868L355.133 612.273C357.095 607.342 359.046 601.964 364.654 600.446C370.259 598.928 376.687 601.179 381.81 597.966C382.275 597.674 382.217 596.902 381.653 596.76L378.492 595.959C372.558 594.474 365.601 592.98 359.989 594.424C353.882 595.998 348.83 601.152 345.867 606.51C342.573 612.47 340.251 619.141 337.751 625.497L337.354 626.498C334.485 633.69 331.726 640.927 329.085 648.208C323.805 662.763 318.999 677.493 314.648 692.356C312.552 699.519 310.563 706.716 308.651 713.931C308.101 716.006 307.195 718.522 306.451 721.146C305.599 721.982 304.792 722.915 304.035 723.978C302.78 725.744 303.681 727.813 305.242 728.87C305.302 730.676 305.701 732.374 306.655 733.83C310.378 739.514 320.221 738.049 319.821 730.408C319.761 729.239 319.308 728.122 318.622 727.179L318.641 727.026V727.026L318.719 726.746V726.746C320.428 725.922 322.143 725.004 323.952 724.106L340.78 715.744V715.744C345.654 713.321 351.056 709.579 356.476 708.655C361.528 707.795 366.859 711.581 371.201 713.865L371.483 714.012C381.979 719.422 392.396 725.012 402.773 730.647C407.838 733.399 412.838 736.265 417.884 739.049C422.103 741.377 426.657 744.719 431.399 746.033C433.425 747.617 435.831 747.405 437.765 746.207C436.881 751.712 436.936 757.36 436.664 762.988C436.3 770.511 436.244 778.055 436.123 785.588L436.075 788.413C435.756 805.067 435.585 821.726 435.522 838.384C435.298 897.701 435.95 957.036 436.103 1016.35C436.18 1046.16 436.767 1075.98 437.537 1105.78C437.863 1118.4 438.546 1131.01 439.283 1143.61L439.688 1150.49C440.547 1165 441.053 1179.66 443.724 1193.97C444.072 1195.84 447.213 1195.89 447.521 1193.97C449.979 1178.64 450.116 1162.97 450.588 1147.45L450.688 1144.35C451.256 1127.69 451.525 1111.05 451.468 1094.38C451.258 1035.04 449.724 975.735 448.469 916.41C447.838 886.604 447.414 856.784 446.434 826.987C445.944 812.078 445.389 797.178 444.731 782.275C444.437 775.621 444.154 768.973 443.715 762.329L443.516 759.482C443.38 757.624 443.27 755.79 443.136 753.971C449.106 756.164 454.566 752.104 459.937 749.326C466.126 746.124 472.314 742.916 478.506 739.72L484.703 736.53V736.53L497.106 730.166C502.69 727.299 506.992 724.447 512.949 727.809C534.406 739.916 554.124 756.024 571.994 772.928C575.42 776.17 582.661 775.299 583.529 769.866C587.236 746.656 584.981 723.11 583.088 699.83L582.391 691.187C581.545 680.864 580.624 670.541 579.397 660.26C578.848 655.66 578.302 651.064 577.697 646.474L577.231 643.032C576.475 637.591 575.982 632.183 574.37 626.965C574.878 626.799 575.368 626.528 575.805 626.111C580.651 621.488 578.315 613.465 576.103 607.965C573.92 602.537 570.591 597.799 566.422 593.721C565.512 592.831 564.231 592.258 562.943 592.228C552.834 585.493 541.744 582.131 530.202 585.808C529.878 584.249 529.547 582.692 529.199 581.14L528.845 579.589C527.947 575.737 527.614 569.375 524.31 566.798ZM420.705 1175.05C417.568 1174.19 414.133 1175.1 411.835 1177.41C409.537 1179.72 408.627 1183.18 409.491 1186.33C409.924 1187.88 410.705 1189.23 411.835 1190.38C412.891 1191.43 414.123 1192.18 415.53 1192.64L415.858 1192.73L416.371 1192.95C417.943 1193.37 419.516 1193.37 421.088 1192.95C422.591 1192.52 423.896 1191.76 425.003 1190.65C426.103 1189.54 426.864 1188.23 427.285 1186.72C427.708 1185.13 427.708 1183.55 427.285 1181.97L427.071 1181.46V1181.46C426.639 1179.9 425.857 1178.55 424.728 1177.41C423.59 1176.28 422.249 1175.49 420.705 1175.05ZM234.444 860.692C233.929 860.097 233.093 860.859 233.413 861.492C238.299 871.125 243.745 880.69 249.098 890.078C248.669 892.68 248.244 895.261 247.754 897.777C245.669 908.5 243.115 919.03 241.45 929.855C235.465 968.767 232.358 1008.1 229.692 1047.36C227.018 1086.76 226.676 1126.18 226.274 1165.66C226.239 1169.08 228.856 1173.06 232.363 1173.71C233.969 1174 235.17 1173.94 236.772 1173.71C240.422 1173.16 242.705 1168.96 242.861 1165.66C243.908 1143.6 245.316 1121.56 246.947 1099.53C249.838 1060.47 251.604 1021.32 253.94 982.218L254.762 968.554C255.645 953.747 256.452 938.931 256.715 924.102C256.89 914.278 256.368 904.457 256.689 894.644C256.986 885.585 257.899 875.734 255.913 866.834C255.839 866.5 255.315 866.416 255.164 866.735C253.099 871.107 251.791 875.859 250.783 880.709C245.461 873.94 240.041 867.156 234.444 860.692ZM583.041 621.387C582.294 621.331 582.323 622.46 583.041 622.544C593.485 623.762 603.574 628.036 613.435 631.669L614.28 631.979C624.243 635.614 633.956 639.841 643.304 644.88C661.58 654.732 678.363 667.436 693.201 681.978C752.443 740.032 779.441 823.747 799.224 902.419C810.215 946.128 818.032 990.576 823.098 1035.37C825.603 1057.52 827.374 1079.75 828.407 1102.02C828.935 1113.43 829.269 1124.86 829.408 1136.28C829.479 1142.13 829.5 1147.99 829.493 1153.84C829.49 1156.52 829.014 1159.9 829.727 1162.5C830.389 1164.91 832.254 1167.04 833.634 1169.05C835.269 1171.43 838.208 1171.31 839.867 1169.05L840.478 1168.23C842.246 1165.87 843.977 1163.61 844.229 1160.53C844.5 1157.22 844.309 1153.82 844.321 1150.5C844.349 1143.81 844.267 1137.12 844.134 1130.43C843.878 1117.61 843.375 1104.8 842.629 1092C841.113 1066.03 838.619 1040.11 835.047 1014.34C828.698 968.539 819.182 923.174 806.716 878.661C794.956 836.67 781.025 794.802 761.178 755.906C742.75 719.792 718.576 686.195 686.677 660.956C671.843 649.218 655.695 639.437 638.285 632.07C629.504 628.355 620.284 625.322 610.906 623.593C601.633 621.883 592.4 622.121 583.041 621.387ZM418.907 1100.83C417.25 1100.82 415.403 1101.18 413.982 1102.11L412.084 1103.58V1103.58C411.569 1104.25 411.057 1104.91 410.547 1105.58C409.36 1107.14 409.202 1109.65 409.45 1111.51C409.506 1112.75 409.872 1113.9 410.547 1114.97L411.993 1116.85V1116.85C413.382 1117.99 414.541 1118.8 416.223 1119.35C417.103 1119.63 417.95 1119.69 418.794 1119.65L419.076 1119.63L418.907 1119.66L419.203 1119.62V1119.62C419.477 1119.6 419.753 1119.57 420.029 1119.53C420.218 1119.51 420.407 1119.49 420.595 1119.47C420.776 1119.45 420.951 1119.44 421.134 1119.46C423.272 1119.66 425.422 1118.44 426.94 1117.04C428.308 1115.78 429.535 1113.1 429.345 1111.2L429.263 1110.41C429.119 1109.07 429.001 1108.55 428.437 1107.2C427.89 1105.89 427.124 1104.74 426.082 1103.77C424.087 1101.9 421.645 1100.85 418.907 1100.83ZM425.526 1002.9C422.688 999.793 417.813 999.565 414.293 1001.45C413.436 1001.91 412.648 1002.64 411.892 1003.26C409.987 1004.8 409.239 1007.6 409.134 1009.95C409.03 1012.28 410.251 1015.04 411.892 1016.65L412.29 1017.04V1017.04C413.271 1018 414.676 1018.83 416.048 1019.09C418.261 1019.49 420.12 1019.48 422.18 1018.61C423.951 1017.86 425.477 1016.65 426.515 1015.01L426.683 1014.73C426.754 1014.62 426.822 1014.5 426.885 1014.38L426.976 1014.2C428.949 1010.39 428.418 1006.07 425.526 1002.9ZM424.056 904.462C422.776 904.058 421.497 904.001 420.217 904.289C419.348 904.291 418.538 904.512 417.787 904.949C416.971 905.179 416.263 905.594 415.662 906.195C414.94 906.625 414.363 907.204 413.935 907.931C413.084 908.867 412.51 909.964 412.211 911.224L411.868 913.798L412.211 916.373L413.183 918.686V918.686C413.449 919.037 413.718 919.387 413.989 919.735C414.418 920.465 414.996 921.047 415.721 921.478C416.193 921.949 416.733 922.302 417.338 922.547C419.482 924.092 422.338 924.596 424.878 923.892C426.386 923.468 427.696 922.7 428.807 921.59C429.91 920.473 430.674 919.156 431.096 917.639L431.27 916.428C431.494 914.804 431.529 913.904 431.072 911.839C430.872 910.931 430.29 909.651 429.985 909.112C428.683 906.809 426.556 905.232 424.056 904.462ZM312.903 833.64C309.227 833.614 305.551 833.621 301.876 833.662L299.12 833.699C294.504 833.772 290.551 833.293 286.922 836.514C284.288 838.851 285.449 842.772 287.949 844.533C291.736 847.199 296.488 845.858 300.842 845.564C305.434 845.254 310.029 844.997 314.626 844.79C323.528 844.389 332.433 844.134 341.343 844.095C350.234 844.057 359.138 844.141 368.028 844.285C377.073 844.433 386.492 845.281 395.487 844.339C396.722 844.21 397.001 842.576 395.781 842.151C387.305 839.202 377.77 838.246 368.887 837.119C359.725 835.955 350.563 835.131 341.343 834.597C331.873 834.051 322.389 833.706 312.903 833.64ZM424.073 804.676L423.77 804.682C422.152 804.686 420.638 805.069 419.226 805.83L418.925 805.999L416.982 807.508C415.793 808.713 414.97 810.133 414.515 811.768L414.172 814.334V814.334C414.121 815.662 414.398 816.901 414.998 818.052C415.385 819.249 416.047 820.284 416.982 821.159C417.852 822.099 418.882 822.765 420.071 823.154C421.128 823.712 422.259 823.992 423.466 823.992L423.77 823.986C425.501 823.98 427.117 823.541 428.613 822.668L430.556 821.159V821.159C431.745 819.954 432.569 818.535 433.024 816.9L433.368 814.334V814.334C433.417 813.005 433.142 811.764 432.54 810.615C432.153 809.418 431.492 808.382 430.556 807.508C429.687 806.567 428.658 805.902 427.467 805.513C426.411 804.955 425.28 804.676 424.073 804.676V804.676ZM395.619 577.933C393.552 574.921 389.804 577.599 390.34 580.021C390.199 586.822 389.853 593.423 388.314 600.085C387.609 603.135 386.686 606.189 385.263 608.983L384.665 610.159C382.822 613.821 381.391 617.273 383.873 621.29C385.043 623.184 387.157 624.606 389.449 624.506C399.612 624.065 401.008 609.839 401.626 601.897C402.263 593.718 400.282 584.729 395.619 577.933Z" fill="black"/>
</g>
<g id="head/Short 4">
<path id="&#240;&#159;&#142;&#168; Background_2" fill-rule="evenodd" clip-rule="evenodd" d="M313.662 425.91C315.546 409.265 313.108 374.474 312.945 372.361C311.912 358.998 318.138 306.233 329.906 311.094C349.648 295.377 375.943 291.907 400.53 290.249C451.602 286.804 505.933 294.711 545.369 329.276C564.872 347.227 583.859 373.335 582.333 400.519C600.052 426.286 625.033 461.632 602.955 491.757C595.45 501.381 583.523 504.965 574.095 512.254C555.133 527.636 543.236 549.711 524.093 565.001C473.378 610.833 387.263 620.407 337.435 568.277C298.904 530.523 305.135 474.041 311.912 425.91C316.469 393.551 309.988 458.382 313.662 425.91Z" fill="white"/>
<path id="&#240;&#159;&#150;&#141; Ink_2" fill-rule="evenodd" clip-rule="evenodd" d="M468.755 219.664C455.096 216.892 441.071 215.167 427.122 215.686L426.047 215.728C415.552 216.15 402.261 217.083 393.106 223.22C392.579 222.689 391.732 222.416 390.964 222.785C380.084 228.007 368.118 231.783 356.662 235.536C345.259 239.269 333.429 241.734 321.478 242.728C316.981 243.102 313.133 247.985 315.98 252.364C316.657 253.408 317.317 254.462 317.974 255.519C316.875 255.404 315.776 255.285 314.677 255.173C311.061 254.807 307.448 258.689 307.662 262.23C307.796 264.457 308.035 266.658 308.388 268.832C307.011 268.803 305.642 269.011 304.319 269.573C297.62 272.418 298.086 280.442 298.588 286.548C299.282 295.02 302.433 303.994 308.283 310.335C303.915 314.898 300.823 320.347 298.979 326.818C297.641 331.543 296.896 336.577 297.264 341.496L297.381 342.969C297.835 348.307 298.739 354.217 302.557 358.057C304.517 360.037 306.932 360.759 309.235 360.53C307.842 372.832 306.95 385.204 306.11 397.533L305.716 403.425C303.842 431.919 302.434 460.598 302.802 489.138C303.145 515.81 308.385 541.699 324.651 563.355C339.466 583.075 360.736 597.612 384.799 603.139C397.766 606.122 411.005 606.333 424.13 604.432C430.492 603.508 436.896 602.091 442.935 599.856C449.619 597.375 454.422 593.723 458.92 588.249C461.047 585.654 460.023 580.127 455.787 580.646C449.381 581.428 443.533 582.369 437.392 584.275L436.512 584.554C430.395 586.525 424.06 587.994 417.665 588.619C404.565 589.895 391.266 588.61 378.717 584.615C358.286 578.103 340.69 563.593 329.411 545.36C316.024 523.747 314.51 499.214 314.703 474.363C314.911 447.094 315.792 419.809 317.232 392.569L317.477 388.029C318.238 374.011 318.973 359.984 319.62 345.957C319.821 341.558 320.127 337.122 320.68 332.731C325.727 329.757 330.251 325.656 333.2 320.597C339.124 323.061 345.354 324.838 351.086 326.255C364.363 329.539 378.148 330.336 391.662 328.28C395.307 329.794 399.025 331.125 402.8 332.271C403.82 332.726 404.841 333.173 405.86 333.611C414.961 337.527 424.192 340.845 433.799 343.274L436.159 343.865C441.214 345.119 446.706 346.353 452.086 346.741C452.97 347.084 453.924 347.374 454.966 347.629C459.865 348.826 464.95 349.205 469.971 348.782C474.863 348.369 478.398 343.397 475.703 338.742C473.735 335.345 471.747 331.957 469.744 328.578C476.717 331.499 483.919 333.928 491.181 335.987C498.514 338.064 505.951 339.815 513.398 341.426C517.38 342.279 521.377 343.036 525.35 343.889C528.194 344.497 532.56 344.813 534.88 346.697C537.442 348.765 538.169 353.587 539.141 356.561C540.418 360.424 541.617 364.305 542.711 368.23C544.889 376.061 546.674 384.008 548.056 392.033C549.439 400.067 550.367 408.18 550.883 416.32C551.399 424.451 551.172 432.635 552.002 440.731C552.45 445.025 557.034 447.234 560.42 444.233C560.817 443.881 561.218 443.525 561.614 443.165L562.205 442.623C565.102 439.983 567.911 437.184 570.229 434.034C570.649 433.453 571.051 432.846 571.427 432.23C571.489 432.23 571.541 432.212 571.602 432.168L572.245 431.682C579.322 426.385 591.145 419.479 598.045 428.279C600.244 431.083 601.37 434.652 602.304 438.096L603.943 444.26C605.004 448.284 606.002 452.33 606.586 456.447C607.907 465.669 607.242 476.299 600.932 483.691C598.412 486.648 594.939 488.76 591.063 489.314C588.901 489.613 586.766 489.244 584.622 488.971C582.444 488.698 580.345 489.138 578.165 488.927C574.7 488.584 573.186 492.755 574.481 495.377C575.181 496.785 576.005 497.999 576.94 499.029C576.188 499.68 575.47 500.384 574.779 501.123C572.731 501.783 570.895 503.2 569.52 505.074C568.409 506.588 567.832 508.233 567.735 509.967C567.613 510.398 567.508 510.838 567.411 511.287L565.534 514.351C565.121 515.023 564.71 515.687 564.297 516.338C559.52 523.906 554.216 530.312 547.627 536.349C541.284 542.156 534.398 547.357 528.439 553.587L527.737 554.327C522.181 560.215 516.324 567.342 518.499 575.903C519.059 578.103 522.113 579.687 524.107 578.2C530.521 573.413 533.751 565.828 539.192 560.02C544.793 554.036 550.997 548.659 556.614 542.693C561.926 537.061 566.117 530.682 569.275 523.659C570.536 525.059 572.372 526.053 574.919 526.44C579.294 527.1 583.372 524.522 585.279 520.711C586.505 521.257 587.755 521.75 589.016 522.137C595.648 524.179 599.821 516.76 597.319 511.278C595.981 508.339 594.31 505.787 592.235 503.64C598.72 502.742 605.317 499.372 609.578 495.166C620.27 484.597 621.74 468.714 619.334 454.59C618.056 447.102 615.852 439.525 612.99 432.494C612.492 431.271 611.957 430.039 611.372 428.825C611.696 428.816 612.028 428.675 612.238 428.402C614.172 425.745 616.525 423.571 617.961 420.597C619.282 417.869 620.751 415.106 621.793 412.263C623.936 406.447 624.986 399.882 625.686 393.731C627.13 381.139 626.571 368.626 624.654 356.112C621.391 334.799 613.509 314.403 601.897 296.506C602.529 296.172 603.135 295.769 603.7 295.292L603.978 295.047L604.432 294.636C607.745 291.62 607.459 285.968 604.432 282.913L603.475 281.95C602.265 280.74 601.221 279.781 599.265 278.464C598.976 278.27 598.681 278.087 598.383 277.916C599.406 276.014 599.762 273.789 599.049 271.335C596.564 262.785 584.331 263.088 576.578 266.816C568 259.117 558.489 252.434 548.18 247.022C523.626 234.139 495.863 225.155 468.755 219.664ZM595.673 444.849C591.088 443.344 584.998 446.503 580.877 448.404C575.653 450.815 571.208 454.379 566.903 458.145C564.76 460.028 564.376 463.108 564.908 465.739C564.962 466.003 565.013 466.276 565.076 466.549C565.644 469.356 568.759 471.565 571.516 471.486C577.282 471.327 580.028 466.32 583.293 462.079C583.677 462.765 584.158 463.399 584.754 463.874L585.157 464.191C586.511 465.228 588.005 466.057 589.794 465.977C591.063 465.915 592.278 465.59 593.399 465C596.199 463.513 597.432 459.87 596.672 456.905C596.199 455.039 595.114 453.578 593.697 452.566L594.225 452.203C595.356 451.412 596.387 450.577 597.191 449.346L597.372 449.055H597.302C598.177 447.542 597.607 445.482 595.673 444.849Z" fill="black"/>
</g>
<g id="face/Calm">
<path id="&#240;&#159;&#150;&#141; Ink_3" fill-rule="evenodd" clip-rule="evenodd" d="M379.713 533.404C386.159 535.282 393.078 535.449 399.648 533.51C405.608 531.752 411.727 527.881 416.113 522.759C420.009 518.209 422.533 512.68 422.434 506.778C422.422 506.104 422.183 505.541 421.814 505.104C421.417 504.634 420.863 504.311 420.269 504.171C419.658 504.027 419.013 504.078 418.463 504.329C417.965 504.557 417.539 504.943 417.272 505.507C416.598 506.398 415.927 507.275 415.253 508.128C409.833 514.858 404.584 519.888 396.435 521.692C392.013 522.671 387.597 522.237 383.545 520.743C379.207 519.144 375.286 516.333 372.214 512.736C370.825 511.11 369.186 510.446 367.583 510.435C365.766 510.422 363.971 511.271 362.618 512.628C361.288 513.962 360.398 515.774 360.317 517.67C360.247 519.334 360.786 521.072 362.222 522.622C366.952 527.73 373.081 531.472 379.713 533.404ZM379.912 449.11C373.305 453.149 363.237 462.567 370.345 472.581C378.712 481.41 390.759 471.287 396.695 466.708C402.199 463.16 408.384 472.286 403.277 476.429C360.381 508.368 342.973 450.166 376.571 444.361C380.27 443.721 381.644 447.86 379.912 449.11ZM441.722 431.337C443.846 429.971 446.344 429.502 449.112 430.769C451.276 431.758 455.071 435.057 457.712 439.393C459.518 442.36 460.799 445.84 460.533 449.465C460.471 450.307 460.78 450.928 461.268 451.387C461.653 451.749 462.21 452.016 462.864 452.099C463.419 452.17 464.04 452.106 464.545 451.947C465.506 451.646 466.015 451.019 466.206 450.507C468.055 445.568 467.259 440.057 465.186 435.085C462.39 428.376 457.311 422.755 453.983 420.943C448.289 417.841 441.571 417.698 435.869 420.858C431.015 423.548 427.98 427.89 424.961 432.317C424.319 433.257 423.683 434.192 423.024 435.109C421.705 436.948 421.574 438.771 422.085 440.335C422.651 442.067 424.094 443.529 425.898 444.294C427.566 445.002 429.502 445.101 431.215 444.375C432.662 443.761 433.99 442.564 434.83 440.534C436.245 437.115 438.603 433.343 441.722 431.337V431.337ZM333.864 438.944C335.319 439.706 336.457 439.936 338.07 439.449C338.962 439.18 339.844 438.663 340.534 437.969C341.219 437.281 341.712 436.425 341.904 435.476C342.376 433.133 343.651 430.94 345.467 429.511C347.019 428.289 348.979 427.641 351.152 428.006C353.498 428.4 355.732 429.913 357.271 431.696C357.786 432.293 358.189 432.971 358.594 433.644C359.353 434.903 360.09 436.073 361.135 436.998C361.532 437.35 362.129 437.593 362.708 437.593C362.943 437.593 363.181 437.555 363.409 437.484C365.743 435.127 366.192 433.34 366.117 431.567C366.038 429.708 365.309 427.825 364.131 426.069C361.368 421.949 356.123 418.571 352.583 417.806C347.735 416.758 342.92 418.016 339.06 420.739C335.088 423.541 332.145 427.891 331.228 432.793C331.007 433.974 331.101 435.248 331.548 436.353C331.985 437.433 332.746 438.358 333.864 438.944ZM431.03 387.411C433.939 390.262 437.383 390.703 440.866 391.096C442.802 391.316 444.347 391.494 445.868 391.839C450.047 392.787 454.178 394.216 457.947 396.274C461.887 398.426 466.18 401.02 469.269 404.344C470.004 405.135 470.696 405.965 471.39 406.797C472.022 407.555 472.631 408.285 473.273 408.989C474.01 409.798 474.71 410.645 475.406 411.491C475.837 412.204 475.922 412.379 476.008 412.562C476.139 412.836 476.291 413.143 476.464 413.473C476.701 413.924 476.979 414.418 477.271 414.866C477.755 415.684 478.015 415.91 478.24 416.011C478.613 416.178 478.966 416.26 479.309 416.215C479.631 416.174 479.934 416.018 480.233 415.764C481.727 414.495 482.167 412.412 482.122 410.201C482.053 406.846 480.823 403.131 479.689 400.848C477.051 395.542 473.393 390.026 468.995 386.066C463.976 381.545 458.485 378.123 452.178 375.765C448.258 374.299 443.72 372.953 439.45 373.123C436.376 373.246 433.442 374.164 431.019 376.459C429.531 377.868 428.817 379.871 428.817 381.873C428.817 383.915 429.559 385.969 431.03 387.411ZM327.947 413.515C328.132 413.82 328.388 414.03 328.673 414.157C328.972 414.289 329.306 414.327 329.626 414.273C329.944 414.219 330.247 414.074 330.487 413.852C330.718 413.639 330.893 413.357 330.971 413.011C332.903 404.479 336.653 398.131 344.659 394.038C348.597 392.024 353.125 390.745 357.412 389.725C358.657 389.428 359.973 389.236 361.299 389.042C365.453 388.431 369.638 387.733 372.346 384.356C373.978 382.321 374.663 379.72 374.276 377.341C373.911 375.1 372.609 373.046 370.243 371.815C364.352 368.752 357.032 371.758 351.083 374.318C350.641 374.508 350.208 374.695 349.784 374.875C343.967 377.344 338.661 380.604 334.299 385.266C330.839 388.964 327.632 394.432 326.341 400.056C325.267 404.736 325.519 409.513 327.947 413.515Z" fill="black"/>
</g>
<g id="accessories/Glasses 3">
<path id="&#240;&#159;&#150;&#141; Ink_4" fill-rule="evenodd" clip-rule="evenodd" d="M306.133 456.987C312.024 464.946 322.946 467.481 333.02 466.606C354.747 464.502 361.585 439.686 362.298 420.398C347.728 424.52 363.53 395.328 313.725 392.118C296.169 390.646 301.009 401.31 293.252 409.101C293.411 425.453 296.118 443.22 306.133 456.987M409.62 438.197C422.448 498.61 492.691 484.24 500.07 429.782C493.256 424.946 495.051 413.004 486.586 408.677C473.171 400.057 456.4 400.425 441.166 400.628C421.693 401.973 416.143 410.086 406.14 418.936C406.622 424.848 408.009 431.854 409.62 438.197M278.307 382.112C279.027 381.992 279.748 381.878 280.469 381.772C281.032 381.45 281.693 381.203 282.461 381.054C284.215 380.607 285.957 380.305 287.697 380.142C312.662 374.492 370.418 382.514 372.802 403.94C380.752 406.609 387.631 404.219 396.846 404.456C403.86 374.973 525.12 379.134 530.952 396.91C530.974 396.904 530.996 396.898 531.019 396.891C536.622 395.147 544.883 395.568 551.297 395.292C564.991 395.003 578.702 396.231 592.101 399.135C617.191 403.145 651.434 407.84 633.984 439.35C633.981 439.355 633.978 439.362 633.974 439.367L633.971 439.364C630.964 442.464 625.86 439.968 625.67 435.771C631.537 420.843 618.286 419.051 608.09 414.761C582.721 405.595 556.893 404.325 530.655 407.16C528.681 409.497 525.686 411.535 522.521 412.602C504.978 415.53 514.223 428.617 503.134 430.52C505.171 476.14 450.098 501.042 418.187 471.053C405.446 458.526 402.409 439.968 399.455 423.24C397.893 422.888 396.9 422.029 396.32 420.892C392.564 417.12 390.204 413.637 382.776 412.602C375.348 411.567 369.63 413.644 368.857 414.281C368.661 414.676 368.452 415.072 368.209 415.468C367.87 416.058 367.408 416.529 366.883 416.899C374.218 462.327 339.15 491.057 303.749 467.495C288.366 452.943 285.116 430.664 284.473 410.778C282.388 409.513 281.068 407.06 281.79 403.977C282.785 399.727 280.452 396.047 276.737 394.199C271.909 391.799 272.763 383.035 278.307 382.112" fill="black"/>
</g>
</g>
</svg>
